<svg xmlns="http://www.w3.org/2000/svg" viewBox="0 0 700 320" font-family="system-ui, -apple-system, sans-serif">
  <defs>
    <marker id="arrow" viewBox="0 0 10 10" refX="9" refY="5" markerWidth="7" markerHeight="7" orient="auto-start-reverse">
      <path d="M 0 0 L 10 5 L 0 10 z" fill="#0066cc"/>
    </marker>
  </defs>

  <!-- Circular arrows (shifted boxes away from arrows) -->
  <path d="M 290 70 A 130 130 0 0 1 410 70" fill="none" stroke="#0066cc" stroke-width="3" marker-end="url(#arrow)"/>
  <path d="M 440 100 A 130 130 0 0 1 440 220" fill="none" stroke="#0066cc" stroke-width="3" marker-end="url(#arrow)"/>
  <path d="M 410 250 A 130 130 0 0 1 290 250" fill="none" stroke="#0066cc" stroke-width="3" marker-end="url(#arrow)"/>
  <path d="M 260 220 A 130 130 0 0 1 260 100" fill="none" stroke="#0066cc" stroke-width="3" marker-end="url(#arrow)"/>

  <!-- CREATE box (top center) -->
  <rect x="295" y="30" width="110" height="40" rx="8" fill="#0066cc"/>
  <text x="350" y="56" text-anchor="middle" font-size="18" font-weight="700" fill="white">CREATE</text>
  <!-- Label ABOVE -->
  <text x="350" y="20" text-anchor="middle" fill="#888" font-size="12" font-style="italic">The Agency + Valueflow</text>

  <!-- APPLY box (right) -->
  <rect x="450" y="140" width="110" height="40" rx="8" fill="#1a1a1a"/>
  <text x="505" y="166" text-anchor="middle" font-size="18" font-weight="700" fill="white">APPLY</text>
  <!-- Label to the RIGHT -->
  <text x="575" y="166" text-anchor="start" fill="#888" font-size="12" font-style="italic">OrdinaryFolk</text>

  <!-- LEARN box (bottom center) -->
  <rect x="295" y="250" width="110" height="40" rx="8" fill="#0066cc"/>
  <text x="350" y="276" text-anchor="middle" font-size="18" font-weight="700" fill="white">LEARN</text>
  <!-- Label BELOW -->
  <text x="350" y="308" text-anchor="middle" fill="#888" font-size="12" font-style="italic">From both</text>

  <!-- IMPROVE box (left) -->
  <rect x="140" y="140" width="110" height="40" rx="8" fill="#1a1a1a"/>
  <text x="195" y="166" text-anchor="middle" font-size="18" font-weight="700" fill="white">IMPROVE</text>
  <!-- Label to the LEFT -->
  <text x="125" y="166" text-anchor="end" fill="#888" font-size="12" font-style="italic">Back to framework</text>

  <!-- Center label — no OODA, just "The Loop" -->
  <text x="350" y="165" text-anchor="middle" fill="#aaa" font-size="14" font-style="italic">The Loop</text>
</svg>
