<svg xmlns="http://www.w3.org/2000/svg" viewBox="0 0 520 520" font-family="system-ui, -apple-system, sans-serif">
  <!-- Colored arc segments forming the circular loop -->
  <path d="M 260 55 A 205 205 0 0 1 465 260" fill="none" stroke="#dc3545" stroke-width="36" stroke-linecap="butt"/>
  <path d="M 465 260 A 205 205 0 0 1 260 465" fill="none" stroke="#f0a500" stroke-width="36" stroke-linecap="butt"/>
  <path d="M 260 465 A 205 205 0 0 1 55 260" fill="none" stroke="#1a5276" stroke-width="36" stroke-linecap="butt"/>
  <path d="M 55 260 A 205 205 0 0 1 260 55" fill="none" stroke="#28a745" stroke-width="36" stroke-linecap="butt"/>

  <!-- Arrowheads -->
  <polygon points="465,240 485,260 465,280" fill="#dc3545"/>
  <polygon points="280,465 260,485 240,465" fill="#f0a500"/>
  <polygon points="55,280 35,260 55,240" fill="#1a5276"/>
  <polygon points="240,55 260,35 280,55" fill="#28a745"/>

  <!-- Labels OUTSIDE the circle, horizontal, large and readable -->
  <text x="420" y="140" text-anchor="start" font-size="26" font-weight="700" fill="#dc3545">Observe</text>
  <text x="420" y="400" text-anchor="start" font-size="26" font-weight="700" fill="#f0a500">Orient</text>
  <text x="10" y="400" text-anchor="start" font-size="26" font-weight="700" fill="#1a5276">Decide</text>
  <text x="10" y="140" text-anchor="start" font-size="26" font-weight="700" fill="#28a745">Act</text>

  <!-- Center text -->
  <text x="260" y="248" text-anchor="middle" font-size="42" font-weight="800" fill="#333">OODA</text>
  <text x="260" y="290" text-anchor="middle" font-size="34" font-weight="700" fill="#333">Loop</text>
</svg>
