<svg xmlns="http://www.w3.org/2000/svg" viewBox="0 0 500 500" font-family="system-ui, -apple-system, sans-serif">
  <!-- Colored arc segments forming the circular loop -->
  <!-- Red arc: Observe (top-right, 12 o'clock to 3 o'clock) -->
  <path d="M 250 60 A 190 190 0 0 1 440 250" fill="none" stroke="#dc3545" stroke-width="40" stroke-linecap="round"/>
  <!-- Yellow/Orange arc: Orient (bottom-right, 3 o'clock to 6 o'clock) -->
  <path d="M 440 250 A 190 190 0 0 1 250 440" fill="none" stroke="#f0a500" stroke-width="40" stroke-linecap="round"/>
  <!-- Blue arc: Decide (bottom-left, 6 o'clock to 9 o'clock) -->
  <path d="M 250 440 A 190 190 0 0 1 60 250" fill="none" stroke="#1a5276" stroke-width="40" stroke-linecap="round"/>
  <!-- Green/Teal arc: Act (top-left, 9 o'clock to 12 o'clock) -->
  <path d="M 60 250 A 190 190 0 0 1 250 60" fill="none" stroke="#28a745" stroke-width="40" stroke-linecap="round"/>

  <!-- Arrowheads at each transition point -->
  <!-- Arrow at 3 o'clock (end of Observe) -->
  <polygon points="440,230 460,250 440,270" fill="#dc3545"/>
  <!-- Arrow at 6 o'clock (end of Orient) -->
  <polygon points="270,440 250,460 230,440" fill="#f0a500"/>
  <!-- Arrow at 9 o'clock (end of Decide) -->
  <polygon points="60,270 40,250 60,230" fill="#1a5276"/>
  <!-- Arrow at 12 o'clock (end of Act) -->
  <polygon points="230,60 250,40 270,60" fill="#28a745"/>

  <!-- Labels on the arcs -->
  <text x="390" y="160" text-anchor="middle" font-size="22" font-weight="700" fill="#dc3545" transform="rotate(45, 390, 160)">Observe</text>
  <text x="390" y="360" text-anchor="middle" font-size="22" font-weight="700" fill="#f0a500" transform="rotate(-45, 390, 360)">Orient</text>
  <text x="110" y="360" text-anchor="middle" font-size="22" font-weight="700" fill="#1a5276" transform="rotate(45, 110, 360)">Decide</text>
  <text x="110" y="160" text-anchor="middle" font-size="22" font-weight="700" fill="#28a745" transform="rotate(-45, 110, 160)">Act</text>

  <!-- Center text -->
  <text x="250" y="240" text-anchor="middle" font-size="36" font-weight="800" fill="#333">OODA</text>
  <text x="250" y="275" text-anchor="middle" font-size="30" font-weight="700" fill="#333">Loop</text>
</svg>
