<svg xmlns="http://www.w3.org/2000/svg" viewBox="0 0 700 320" font-family="system-ui, -apple-system, sans-serif">
  <!-- Arrow marker -->
  <defs>
    <marker id="arrow" viewBox="0 0 10 10" refX="9" refY="5" markerWidth="7" markerHeight="7" orient="auto-start-reverse">
      <path d="M 0 0 L 10 5 L 0 10 z" fill="#0066cc"/>
    </marker>
  </defs>

  <!-- Arrows forming a loop -->
  <path d="M 270 60 A 120 120 0 0 1 430 60" fill="none" stroke="#0066cc" stroke-width="3" marker-end="url(#arrow)"/>
  <path d="M 455 85 A 120 120 0 0 1 455 215" fill="none" stroke="#0066cc" stroke-width="3" marker-end="url(#arrow)"/>
  <path d="M 430 240 A 120 120 0 0 1 270 240" fill="none" stroke="#0066cc" stroke-width="3" marker-end="url(#arrow)"/>
  <path d="M 245 215 A 120 120 0 0 1 245 85" fill="none" stroke="#0066cc" stroke-width="3" marker-end="url(#arrow)"/>

  <!-- Node boxes -->
  <rect x="280" y="20" width="140" height="48" rx="10" fill="#0066cc"/>
  <text x="350" y="50" text-anchor="middle" fill="white" font-size="20" font-weight="700">CREATE</text>

  <rect x="460" y="126" width="140" height="48" rx="10" fill="#1a1a1a"/>
  <text x="530" y="156" text-anchor="middle" fill="white" font-size="20" font-weight="700">APPLY</text>

  <rect x="280" y="232" width="140" height="48" rx="10" fill="#0066cc"/>
  <text x="350" y="262" text-anchor="middle" fill="white" font-size="20" font-weight="700">LEARN</text>

  <rect x="100" y="126" width="140" height="48" rx="10" fill="#1a1a1a"/>
  <text x="170" y="156" text-anchor="middle" fill="white" font-size="20" font-weight="700">IMPROVE</text>

  <!-- Labels -->
  <text x="350" y="14" text-anchor="middle" fill="#888" font-size="13" font-style="italic">The Agency + Valueflow</text>
  <text x="600" y="195" text-anchor="middle" fill="#888" font-size="13" font-style="italic">OrdinaryFolk</text>
  <text x="350" y="298" text-anchor="middle" fill="#888" font-size="13" font-style="italic">From both</text>
  <text x="170" y="195" text-anchor="middle" fill="#888" font-size="13" font-style="italic">Back to framework</text>

  <!-- Center -->
  <text x="350" y="142" text-anchor="middle" fill="#333" font-size="26" font-weight="700">OODA</text>
  <text x="350" y="166" text-anchor="middle" fill="#888" font-size="13">Observe · Orient · Decide · Act</text>
</svg>
